<?xml version="1.0" encoding="utf-8"?>
<!-- Generator: Adobe Illustrator 23.1.1, SVG Export Plug-In . SVG Version: 6.00 Build 0)  -->
<svg version="1.1" id="Layer_1" xmlns="http://www.w3.org/2000/svg" xmlns:xlink="http://www.w3.org/1999/xlink" x="0px" y="0px"
	 width="1051px" height="992.1px" viewBox="0 0 1051 992.1" style="enable-background:new 0 0 1051 992.1;" xml:space="preserve">
<style type="text/css">
	.st0{opacity:6.000000e-02;enable-background:new    ;}
	.st1{fill:url(#SVGID_1_);}
	.st2{fill:url(#SVGID_2_);}
	.st3{opacity:0.95;fill:#87C54D;enable-background:new    ;}
	.st4{fill:url(#SVGID_3_);}
	.st5{fill:url(#SVGID_4_);}
	.st6{fill:#222B2E;}
	.st7{fill:url(#SVGID_5_);}
	.st8{fill:url(#SVGID_6_);}
	.st9{fill:#091215;}
	.st10{fill:url(#SVGID_7_);}
	.st11{fill:url(#SVGID_8_);}
	.st12{fill:url(#SVGID_9_);}
	.st13{fill:url(#SVGID_10_);}
	.st14{fill:url(#SVGID_11_);}
	.st15{fill:url(#SVGID_12_);}
	.st16{fill:url(#SVGID_13_);}
	.st17{fill-rule:evenodd;clip-rule:evenodd;fill:#231F20;}
	.st18{fill:#FCFCFC;}
	.st19{clip-path:url(#SVGID_16_);}
	.st20{clip-path:url(#SVGID_17_);fill:url(#SVGID_18_);}
	.st21{opacity:0.3;fill:url(#SVGID_19_);enable-background:new    ;}
	.st22{fill:url(#SVGID_20_);}
	.st23{fill:url(#SVGID_21_);}
	.st24{fill:url(#SVGID_22_);}
	.st25{opacity:0.75;fill:#87C54D;enable-background:new    ;}
	.st26{opacity:0.85;fill:#87C54D;enable-background:new    ;}
	.st27{fill:#E5E5E5;}
	.st28{fill:url(#SVGID_23_);}
	.st29{fill:url(#SVGID_24_);}
	.st30{fill:#212B2E;}
	.st31{fill:url(#SVGID_25_);}
	.st32{fill:#8698A3;}
	.st33{fill:url(#SVGID_26_);}
	.st34{fill:url(#SVGID_27_);}
	.st35{fill:url(#SVGID_28_);}
	.st36{fill:#00FF49;}
	.st37{opacity:0.2;fill:#00FF49;enable-background:new    ;}
	.st38{fill:#3A464A;}
	.st39{fill:url(#SVGID_29_);}
	.st40{fill:#9FACB5;}
	.st41{fill:url(#SVGID_30_);}
	.st42{fill:url(#SVGID_31_);}
	.st43{opacity:0.3;fill:url(#SVGID_32_);enable-background:new    ;}
	.st44{fill:#F2F2F2;}
	.st45{fill-rule:evenodd;clip-rule:evenodd;fill:#E8EBED;}
	.st46{fill:#E8EBED;}
	.st47{fill:#F2A983;}
	.st48{fill:#D88F69;}
	.st49{fill:#F9F9F9;}
	.st50{fill-rule:evenodd;clip-rule:evenodd;fill:#F2A983;}
	.st51{fill-rule:evenodd;clip-rule:evenodd;fill:#2E373A;}
	.st52{fill:#2E373A;}
	.st53{fill:url(#SVGID_33_);}
	.st54{clip-path:url(#SVGID_36_);}
	.st55{clip-path:url(#SVGID_37_);fill:url(#SVGID_38_);}
	.st56{opacity:0.2;fill:url(#SVGID_39_);enable-background:new    ;}
	.st57{fill:url(#SVGID_40_);}
	.st58{fill:url(#SVGID_41_);}
	.st59{fill:#3B4447;}
	.st60{fill:url(#SVGID_42_);}
	.st61{fill-rule:evenodd;clip-rule:evenodd;fill:#D88F69;}
</style>
<g>
	<path class="st0" d="M20.5,624.2l304.8,203.4c19.2,13.3,45.1,13.3,64.3,0l25.8-17.2c12.6-8,28.5-7.3,39.8,2.7
		C528.8,876,760,1064.8,913.8,962.1c89.5-59.6,144.5-99.4,136.5-151.1c-6.6-43.7-30.5-82.8-65.6-110L834.9,584.4v-0.7l185.5-95.4
		c13.9-7.3,14.6-27.2,0.7-35.8l-385-226l0,0L21.2,597.7C11.3,603.6,10.6,618.2,20.5,624.2z"/>
	
		<linearGradient id="SVGID_1_" gradientUnits="userSpaceOnUse" x1="338.6249" y1="-482.6858" x2="382.8633" y2="-482.6858" gradientTransform="matrix(1 0 0 -1 0 154.09)">
		<stop  offset="0" style="stop-color:#A87D3D"/>
		<stop  offset="6.451610e-02" style="stop-color:#C9960C"/>
		<stop  offset="0.4032" style="stop-color:#A87D3D"/>
		<stop  offset="0.7527" style="stop-color:#C9960C"/>
		<stop  offset="1" style="stop-color:#A87D3D"/>
	</linearGradient>
	<path class="st1" d="M353.8,491c-8.6,0-15.9,7.3-15.2,16.6l18.6,275h6.6l18.6-275c0.7-8.6-6.6-16.6-15.2-16.6H353.8z"/>
	
		<linearGradient id="SVGID_2_" gradientUnits="userSpaceOnUse" x1="166.3442" y1="-389.9193" x2="210.5826" y2="-389.9193" gradientTransform="matrix(1 0 0 -1 0 154.09)">
		<stop  offset="0" style="stop-color:#A87D3D"/>
		<stop  offset="6.451610e-02" style="stop-color:#C9960C"/>
		<stop  offset="0.4032" style="stop-color:#A87D3D"/>
		<stop  offset="0.7527" style="stop-color:#C9960C"/>
		<stop  offset="1" style="stop-color:#A87D3D"/>
	</linearGradient>
	<path class="st2" d="M181.6,398.2c-8.6,0-15.9,7.3-15.2,16.6l18.6,275h6.6l18.6-275c0.7-8.6-6.6-16.6-15.2-16.6H181.6z"/>
	<polygon class="st3" points="78.9,444.6 78.9,420.1 365.1,585.1 365.1,609.6 	"/>
	<g>
		
			<linearGradient id="SVGID_3_" gradientUnits="userSpaceOnUse" x1="-2795.3267" y1="-752.3705" x2="-2795.3267" y2="-794.5363" gradientTransform="matrix(-1 0 0 -1 -2020.0637 154.09)">
			<stop  offset="0" style="stop-color:#4A5659"/>
			<stop  offset="1" style="stop-color:#1F2426"/>
		</linearGradient>
		<rect x="764" y="907.1" class="st4" width="22.5" height="40.4"/>
		<g>
			
				<linearGradient id="SVGID_4_" gradientUnits="userSpaceOnUse" x1="-2943.0266" y1="-700.2009" x2="-2963.2651" y2="-717.9424" gradientTransform="matrix(-1 0 0 -1 -2020.0637 154.09)">
				<stop  offset="0" style="stop-color:#4A5659"/>
				<stop  offset="1" style="stop-color:#1F2426"/>
			</linearGradient>
			<path class="st5" d="M915.1,857.4l13.3-13.3c1.3-1.3,4-2,6-2c7.3,0,15.9,6.6,19.2,14.6c1.3,4.6,1.3,8.6-1.3,11.3l-13.9,13.9
				c-1.3,1.3-4,2-6.6,2c-7.3,0-15.9-6.6-19.2-14.6C911.8,864.7,912.4,860.1,915.1,857.4z"/>
			<path class="st6" d="M913.1,869.4c2.7,8,11.3,14.6,19.2,14.6c7.3,0,11.3-6.6,8.6-14.6s-11.3-14.6-19.2-14.6
				C914.4,854.8,910.4,861.4,913.1,869.4z"/>
		</g>
		<g>
			
				<linearGradient id="SVGID_5_" gradientUnits="userSpaceOnUse" x1="-363.001" y1="-682.9279" x2="-383.2451" y2="-700.6748" gradientTransform="matrix(1 0 0 -1 1003.8672 154.09)">
				<stop  offset="0" style="stop-color:#4A5659"/>
				<stop  offset="1" style="stop-color:#1F2426"/>
			</linearGradient>
			<path class="st7" d="M648.7,840.2l-13.3-13.3c-1.3-1.3-4-2-6-2c-7.3,0-15.9,6.6-19.2,14.6c-1.3,4.6-1.3,8.6,1.3,11.3l13.9,13.9
				c1.3,1.3,4,2,6.6,2c7.3,0,15.9-6.6,19.2-14.6C652.7,847.5,651.4,842.8,648.7,840.2z"/>
			<path class="st6" d="M650.7,852.1c-2.7,8-11.3,14.6-19.2,14.6c-7.3,0-11.3-6.6-8.6-14.6c2.7-8,11.3-14.6,19.2-14.6
				C649.4,837.5,653.3,844.2,650.7,852.1z"/>
		</g>
		<g>
			
				<linearGradient id="SVGID_6_" gradientUnits="userSpaceOnUse" x1="-2911.6887" y1="-585.5591" x2="-2903.8342" y2="-619.2247" gradientTransform="matrix(-1 0 0 -1 -2020.0637 154.09)">
				<stop  offset="0" style="stop-color:#4A5659"/>
				<stop  offset="1" style="stop-color:#1F2426"/>
			</linearGradient>
			<path class="st8" d="M880.6,739.5c2.7-2,4.6-2,6.6-1.3l14.6,5.3c2,1.3,3.3,4,3.3,8.6c0,8-4.6,17.9-10.6,22.5
				c-2.7,2-4.6,2-6.6,1.3l-13.9-4.6c-2.7-0.7-4-4-4-8.6C870,753.4,874.7,743.5,880.6,739.5z"/>
			<path class="st9" d="M904.5,751.4c0,8-4.6,17.9-10.6,22.5c-6,4-10.6,1.3-10.6-7.3c0-8,4.6-17.9,10.6-22.5
				C899.8,740.1,904.5,743.5,904.5,751.4z"/>
		</g>
		<g>
			
				<linearGradient id="SVGID_7_" gradientUnits="userSpaceOnUse" x1="-310.9997" y1="-575.0018" x2="-303.1437" y2="-608.6693" gradientTransform="matrix(1 0 0 -1 997.0449 154.09)">
				<stop  offset="0" style="stop-color:#4A5659"/>
				<stop  offset="1" style="stop-color:#1F2426"/>
			</linearGradient>
			<path class="st10" d="M697.1,728.9c-2.7-2-4.6-2-6.6-1.3l-14.6,5.3c-2,1.3-3.3,4-3.3,8.6c0,8,4.6,17.9,10.6,22.5
				c2.7,2,4.6,2,6.6,1.3l13.9-4.6c2.7-0.7,4-4,4-8.6C707.7,743.5,703,732.9,697.1,728.9z"/>
			<path class="st9" d="M672.6,740.8c0,8,4.6,17.9,10.6,22.5c6,4,10.6,1.3,10.6-7.3s-4.6-17.9-10.6-22.5
				C677.2,729.5,672.6,732.9,672.6,740.8z"/>
		</g>
		<path class="st9" d="M789.8,778.6c0,0,35.1-25.2,57-37.8c21.9-12.6,41.7-24.5,51.7-9.3l-23.2,19.2l-4.6,14.6L796.5,823
			L789.8,778.6z"/>
		
			<linearGradient id="SVGID_8_" gradientUnits="userSpaceOnUse" x1="-2903.063" y1="-569.1948" x2="-2813.2783" y2="-632.1826" gradientTransform="matrix(-1 0 0 -1 -2020.0637 154.09)">
			<stop  offset="0" style="stop-color:#6F8085"/>
			<stop  offset="0.225" style="stop-color:#1F2426"/>
		</linearGradient>
		<path class="st11" d="M855.4,742.8c-15.9,9.3-48.4,31.8-64.3,42.4l-1.3-6.6c0,0,35.1-25.2,57-37.8c18.6-10.6,35.8-20.5,46.4-14.6
			C883.3,726.9,869.4,734.8,855.4,742.8z"/>
		<path class="st9" d="M761.3,817l-59-62.9c0,0-2.7-13.3-10.6-21.9c-8-8.6-14.6-15.9-14.6-15.9s6.6-11.3,18.6-3.3
			c11.9,8,72.9,58.3,72.9,58.3L761.3,817z"/>
		<path class="st6" d="M913.8,850.8l-4,6.6l-106.7-23.9l2.7-34.5l3.3-6.6l99.4,32.5c0,0,43.7,8,47.7,29.8L913.8,850.8z"/>
		<path class="st6" d="M756,829.6l-104.7,10.6l-6-8l-40.4,2.7c0,0-2-8.6,7.3-15.9c9.3-7.3,142.5-28.5,142.5-28.5L756,829.6z"/>
		
			<linearGradient id="SVGID_9_" gradientUnits="userSpaceOnUse" x1="-2827.7949" y1="-652.9786" x2="-2774.9097" y2="-652.9786" gradientTransform="matrix(-1 0 0 -1 -2020.0637 154.09)">
			<stop  offset="0" style="stop-color:#2E3638"/>
			<stop  offset="0.7594" style="stop-color:#171B1C"/>
		</linearGradient>
		<path class="st12" d="M762.7,779.2c10.6-6,27.2-6,37.1,0c5.3,3.3,8,6.6,8,10.6v34.5c0,4-2.7,8-8,10.6c-10.6,6-27.2,6-37.1,0
			c-5.3-2.7-8-6.6-8-10.6v-34.5C754.7,786.5,757.4,782.6,762.7,779.2z"/>
		
			<linearGradient id="SVGID_10_" gradientUnits="userSpaceOnUse" x1="-2827.7949" y1="-636.0818" x2="-2774.9006" y2="-636.0818" gradientTransform="matrix(-1 0 0 -1 -2020.0637 154.09)">
			<stop  offset="0" style="stop-color:#4A5659"/>
			<stop  offset="1" style="stop-color:#1F2426"/>
		</linearGradient>
		<path class="st13" d="M762.7,779.2c-10.6,6-10.6,15.9,0,21.9s27.2,6,37.1,0c10.6-6,10.6-15.9,0-21.9
			C789.8,773.3,772.6,773.3,762.7,779.2z"/>
		<path d="M768,726.2c7.3-4.6,19.9-4.6,27.8,0c4,2,6,5.3,6,8v47c0,2.7-2,6-6,8c-7.3,4.6-19.9,4.6-27.8,0c-4-2-6-5.3-6-8v-47
			C762,730.9,764,728.2,768,726.2z"/>
		
			<linearGradient id="SVGID_11_" gradientUnits="userSpaceOnUse" x1="-2798.2937" y1="-765.1848" x2="-2800.3098" y2="-652.8936" gradientTransform="matrix(-1 0 0 -1 -2020.0637 154.09)">
			<stop  offset="0" style="stop-color:#6F8085"/>
			<stop  offset="0.225" style="stop-color:#1F2426"/>
		</linearGradient>
		<polygon class="st14" points="786.5,807.7 773.9,807.7 772.6,919.1 778.6,919.1 		"/>
		<polygon points="768,837.5 773.9,807.7 772.6,919.1 770.6,902.5 		"/>
		<polygon points="786.5,807.7 791.8,838.9 781.9,903.8 778.6,919.1 		"/>
		
			<linearGradient id="SVGID_12_" gradientUnits="userSpaceOnUse" x1="-2976.2214" y1="-669.544" x2="-2825.8071" y2="-669.544" gradientTransform="matrix(-1 0 0 -1 -2020.0637 154.09)">
			<stop  offset="0" style="stop-color:#6F8085"/>
			<stop  offset="0.225" style="stop-color:#1F2426"/>
		</linearGradient>
		<path class="st15" d="M809.1,792.5l99.4,32.5c0,0,43.7,8,47.7,29.8h-3.3c-5.3-9.9-18.6-16.6-18.6-16.6l-128.5-39.1L809.1,792.5z"
			/>
		
			<linearGradient id="SVGID_13_" gradientUnits="userSpaceOnUse" x1="-2639.6426" y1="-664.7698" x2="-2776.1497" y2="-640.9036" gradientTransform="matrix(-1 0 0 -1 -2020.0637 154.09)">
			<stop  offset="0" style="stop-color:#6F8085"/>
			<stop  offset="0.225" style="stop-color:#1F2426"/>
		</linearGradient>
		<path class="st16" d="M612.3,819c9.3-7.3,142.5-28.5,142.5-28.5v2.7l-106,18.6l-29.8,6c0,0-7.3,0.7-12.6,8.6
			C607,823.6,608.9,821.6,612.3,819z"/>
	</g>
	<g>
		<g>
			<path class="st17" d="M660,720.3l3.3,21.2c0,0,1.3,13.9-15.9,15.9c-17.2,1.3-23.9-9.9-28.5-18.6c-5.3-8.6-17.9-25.2-31.8-27.8
				c-13.9-2.7-39.1-24.5-33.8-38.4c4.6-11.9,34.5-15.9,62.9,2.7v8c0,0,0,19.2,15.9,27.2C648,718.9,660,720.3,660,720.3z"/>
			<path class="st17" d="M502.9,728.2c19.9,0,36.4,9.9,57.6-3.3c0,0,15.2,17.2,52.3,19.2l6,14.6c0,0,5.3,11.3,5.3,27.8
				c0,0-7.3,17.2-30.5,13.3c-23.2-4-29.2-11.3-57-8.6c-24.5,2.7-60.3-9.9-70.2-31.8C457.2,736.2,481.1,727.6,502.9,728.2z"/>
		</g>
		<path class="st18" d="M489.7,475.1c0,0-11.3,234.6-23.9,247.8s64.3,23.9,87.5,25.8c23.2,2,22.5,52.3,64.3,35.8
			c42.4-16.6,27.8-42.4,66.9-62.3c38.4-19.9,64.9-74.2,31.1-101.4C681.8,594.4,489.7,475.1,489.7,475.1z"/>
	</g>
	<g>
		<g>
			<defs>
				<polygon id="SVGID_14_" points="19.9,19.9 26.5,19.9 19.9,26.5 				"/>
			</defs>
			<defs>
				<polygon id="SVGID_15_" points="6.6,6.6 0,6.6 6.6,0 				"/>
			</defs>
			<clipPath id="SVGID_16_">
				<use xlink:href="#SVGID_14_"  style="overflow:visible;"/>
			</clipPath>
			<clipPath id="SVGID_17_" class="st19">
				<use xlink:href="#SVGID_15_"  style="overflow:visible;"/>
			</clipPath>
			
				<linearGradient id="SVGID_18_" gradientUnits="userSpaceOnUse" x1="-2609.2026" y1="-474.9751" x2="-2771.5686" y2="-570.6942" gradientTransform="matrix(-1 0 0 -1 -2020.0637 154.09)">
				<stop  offset="0" style="stop-color:#FFFFFF"/>
				<stop  offset="1" style="stop-color:#000000"/>
			</linearGradient>
			<path class="st20" d="M581.8,638.8c0.7,0.7,1.3,1.3,2,1.3l143.8,89.5c0,0,16.6,9.3,26.5,2c6-2,12.6-8,19.2-17.9
				c1.3,2.7,0.7,8-5.3,16.6c-14.6,20.5-34.5,8-34.5,8l-153.1-98.1C581.1,639.4,581.8,638.8,581.8,638.8z"/>
		</g>
	</g>
	
		<linearGradient id="SVGID_19_" gradientUnits="userSpaceOnUse" x1="-2609.2026" y1="-474.9751" x2="-2771.5686" y2="-570.6942" gradientTransform="matrix(-1 0 0 -1 -2020.0637 154.09)">
		<stop  offset="0" style="stop-color:#FFFFFF"/>
		<stop  offset="1" style="stop-color:#FFFFFF"/>
	</linearGradient>
	<path class="st21" d="M581.8,638.8c0.7,0.7,1.3,1.3,2,1.3l143.8,89.5c0,0,16.6,9.3,26.5,2c6-2,12.6-8,19.2-17.9
		c1.3,2.7,0.7,8-5.3,16.6c-14.6,20.5-34.5,8-34.5,8l-153.1-98.1C581.1,639.4,581.8,638.8,581.8,638.8z"/>
	
		<linearGradient id="SVGID_20_" gradientUnits="userSpaceOnUse" x1="-2732.4014" y1="-440.4981" x2="-2691.2866" y2="-373.3882" gradientTransform="matrix(-1 0 0 -1 -2020.0637 154.09)">
		<stop  offset="0" style="stop-color:#4A5659"/>
		<stop  offset="1" style="stop-color:#1F2426"/>
	</linearGradient>
	<path class="st22" d="M782.6,487c0,0-20.5,26.5-21.2,67.6l-127.2,75.5l-40.4-26.5c0,0-15.9-10.6-23.2-7.3l0,0l205.4-121.9
		c0,0,2-0.7,5.3-0.7C781.2,478.4,781.9,483,782.6,487z"/>
	
		<linearGradient id="SVGID_21_" gradientUnits="userSpaceOnUse" x1="-2772.2881" y1="-542.6027" x2="-2726.9033" y2="-487.7631" gradientTransform="matrix(-1 0 0 -1 -2020.0637 154.09)">
		<stop  offset="0" style="stop-color:#4A5659"/>
		<stop  offset="1" style="stop-color:#1F2426"/>
	</linearGradient>
	<path class="st23" d="M681.8,661.3l53.7-34.5c-5.3,30.5-7.3,65.6-7.3,65.6L681.8,661.3z"/>
	
		<linearGradient id="SVGID_22_" gradientUnits="userSpaceOnUse" x1="-2749.855" y1="-485.6151" x2="-2710.0127" y2="-426.1783" gradientTransform="matrix(-1 0 0 -1 -2020.0637 154.09)">
		<stop  offset="0" style="stop-color:#4A5659"/>
		<stop  offset="1" style="stop-color:#1F2426"/>
	</linearGradient>
	<path class="st24" d="M761.3,554.6c0,4,0,8.6,0.7,13.3c0,0-20.5,26.5-25.8,57.6c0,0.7,0,1.3,0,1.3l-53.7,34.5l-47.7-31.1
		L761.3,554.6z"/>
	<path class="st18" d="M489,423.4c18.6-13.9,112.6-46.4,155.1-51.7c42.4-5.3,64.3,57,64.3,57l32.5,210
		c-44.4-5.3-105.4-49-136.5-68.9c-31.8-19.9-133.8-73.6-137.8-94.1C462.5,454.6,470.5,437.3,489,423.4z"/>
	<polygon class="st25" points="365.1,585.1 999.9,218 999.9,242.5 365.1,609.6 	"/>
	<polygon class="st26" points="78.9,420.1 714.3,53 999.9,218 365.1,585.1 	"/>
	<g>
		<path class="st27" d="M919.7,191.5c0,0,15.2,4,17.9,8c30.5,43.7,14.6,169,2.7,206.7S909.1,444,869.4,430
			c-40.4-13.9-27.8-129.9-27.8-129.9L919.7,191.5z"/>
		<g>
			
				<linearGradient id="SVGID_23_" gradientUnits="userSpaceOnUse" x1="434.7564" y1="-186.4956" x2="448.5395" y2="-186.4956" gradientTransform="matrix(1 0 0 -1 98.4482 154.09)">
				<stop  offset="0" style="stop-color:#7F8A94"/>
				<stop  offset="1" style="stop-color:#C1C8CC"/>
			</linearGradient>
			<path class="st28" d="M749.4,315.4l-135.2-78.2c-2-1.3-4.6-1.3-6.6,0L402.2,356.5c-0.7,0.7-1.3,1.3-1.3,2v6c0,0.7,0.7,1.3,1.3,2
				L536.7,444c2,1.3,4.6,1.3,6.6,0l206.1-118.6c0.7-0.7,1.3-1.3,1.3-2v-6C750.7,316.7,750.1,316.1,749.4,315.4z"/>
			
				<linearGradient id="SVGID_24_" gradientUnits="userSpaceOnUse" x1="649.6341" y1="-183.5138" x2="326.321" y2="-183.5138" gradientTransform="matrix(1 0 0 -1 98.4482 154.09)">
				<stop  offset="0" style="stop-color:#CDD5D9"/>
				<stop  offset="1" style="stop-color:#ACB9C2"/>
			</linearGradient>
			<path class="st29" d="M749.4,315.4c2,1.3,2,2.7,0,4L543.3,438c-2,1.3-4.6,1.3-6.6,0l-134.5-78.2c-2-1.3-2-2.7,0-4l206.1-118.6
				c2-1.3,4.6-1.3,6.6,0L749.4,315.4z"/>
			<path class="st30" d="M686.5,289.6c0.7,0.7,0.7,1.3,0,2L495.6,402.2c-0.7,0.7-2.7,0.7-3.3,0l-57.6-33.1c-0.7-0.7-0.7-1.3,0-2
				l190.8-110c0.7-0.7,2.7-0.7,3.3,0L686.5,289.6z"/>
			
				<linearGradient id="SVGID_25_" gradientUnits="userSpaceOnUse" x1="576.683" y1="-174.4913" x2="522.4166" y2="-208.7698" gradientTransform="matrix(1 0 0 -1 98.4482 154.09)">
				<stop  offset="0" style="stop-color:#CDD5D9"/>
				<stop  offset="1" style="stop-color:#ACB9C2"/>
			</linearGradient>
			<path class="st31" d="M679.2,346.5c2,1.3,2,2.7,0,4l-44.4,25.8c-2,1.3-4.6,1.3-6.6,0l-31.8-18.6c-2-1.3-2-2.7,0-4l44.4-25.8
				c2-1.3,4.6-1.3,6.6,0L679.2,346.5z"/>
			<path class="st32" d="M596.4,355.2l44.4-25.8c2-1.3,4.6-1.3,6.6,0l31.8,17.9c0.7,0.7,1.3,0.7,1.3,1.3c0-0.7,0-2-1.3-2.7
				l-31.8-18.6c-2-1.3-4.6-1.3-6.6,0l-44.4,26.5c-1.3,0.7-1.3,1.3-1.3,2.7C595.7,355.8,595.7,355.2,596.4,355.2z"/>
			<path class="st32" d="M679.8,348.5c0,0-0.7-0.7-1.3-1.3l-4.6-2.7l-24.5,13.9v0.7l-25.2,13.9v0.7l4.6,2.7c2,1.3,4.6,1.3,6.6,0
				l44.4-25.8l0,0C679.8,349.9,679.8,349.2,679.8,348.5z"/>
			
				<linearGradient id="SVGID_26_" gradientUnits="userSpaceOnUse" x1="607.9417" y1="-174.2144" x2="521.8219" y2="-227.7911" gradientTransform="matrix(1 0 0 -1 98.4482 154.09)">
				<stop  offset="0" style="stop-color:#CDD5D9"/>
				<stop  offset="1" style="stop-color:#ACB9C2"/>
			</linearGradient>
			<path class="st33" d="M649.4,358.5l8,4.6l21.9-12.6c1.3-0.7,1.3-2.7,0-3.3l-4.6-2.7L649.4,358.5z"/>
			
				<linearGradient id="SVGID_27_" gradientUnits="userSpaceOnUse" x1="606.4958" y1="-173.2339" x2="521.0387" y2="-226.399" gradientTransform="matrix(1 0 0 -1 98.4482 154.09)">
				<stop  offset="0" style="stop-color:#CDD5D9"/>
				<stop  offset="1" style="stop-color:#ACB9C2"/>
			</linearGradient>
			<path class="st34" d="M648.7,358.5l-25.2,14.6l4.6,2.7c1.3,0.7,4,0.7,5.3,0l21.9-12.6L648.7,358.5z"/>
			<g>
				<path class="st32" d="M434,353.2c2.7,1.3,2.7,4,0,5.3c-2.7,1.3-6.6,1.3-9.3,0c-2.7-1.3-2.7-4,0-5.3
					C426.7,351.9,431.4,351.9,434,353.2z"/>
				
					<linearGradient id="SVGID_28_" gradientUnits="userSpaceOnUse" x1="335.4268" y1="-198.7771" x2="326.5067" y2="-203.8906" gradientTransform="matrix(1 0 0 -1 98.4482 154.09)">
					<stop  offset="0" style="stop-color:#CDD5D9"/>
					<stop  offset="1" style="stop-color:#ACB9C2"/>
				</linearGradient>
				<path class="st35" d="M433.4,353.2c2.7,1.3,2.7,4,0,5.3c-2.7,1.3-6.6,1.3-9.3,0c-2.7-1.3-2.7-4,0-5.3
					C426.7,351.9,431.4,351.9,433.4,353.2z"/>
				<g>
					<path class="st32" d="M428.1,354.5L428.1,354.5c1.3,0,2,0.7,2,0.7c0.7,0.7,0.7,1.3,0,1.3c-0.7,0.7-2,0.7-2.7,0
						c-0.7,0-0.7-0.7-0.7-0.7l-0.7-0.7c-0.7,0.7,0,1.3,0.7,1.3c0.7,0.7,2.7,0.7,3.3,0c0.7-0.7,0.7-1.3,0-2
						C430,354.5,428.7,354.5,428.1,354.5z"/>
					<path class="st32" d="M426.7,354.5C426.1,354.5,426.1,354.5,426.7,354.5l2,1.3h0.7c0,0,0,0,0-0.7L426.7,354.5L426.7,354.5z"/>
				</g>
			</g>
			<polygon class="st32" points="605,245.8 595.7,251.1 590.4,247.8 599,242.5 			"/>
			<polygon class="st32" points="424.7,349.9 415.5,355.2 409.5,351.9 418.8,346.5 			"/>
			<path class="st30" d="M652.7,371.7c0.7,0,0.7,0.7,0,0.7s-0.7,0-1.3,0s-0.7-0.7,0-0.7C652,371.1,652.7,371.1,652.7,371.7z"/>
			<path class="st36" d="M673.2,359.8c0.7,0,0.7,0.7,0,0.7c0,0-0.7,0-1.3,0s-0.7-0.7,0-0.7C671.9,359.8,672.6,359.8,673.2,359.8z"/>
			<path class="st37" d="M673.2,359.8c0.7,0,0.7,0.7,0,1.3c-0.7,0-1.3,0-2,0c-0.7,0-0.7-0.7,0-1.3
				C671.9,359.1,672.6,359.1,673.2,359.8z"/>
			<path class="st37" d="M673.9,359.1c0.7,0.7,0.7,1.3,0,1.3c-0.7,0.7-2,0.7-2.7,0c-0.7-0.7-0.7-1.3,0-1.3
				C671.9,359.1,673.2,359.1,673.9,359.1z"/>
			<path class="st30" d="M658,368.4v0.7c-0.7,0-0.7,0-1.3,0c-0.7,0-0.7-0.7,0-0.7C656.7,368.4,657.3,368.4,658,368.4z"/>
			<path class="st30" d="M662.6,365.8c0.7,0,0.7,0.7,0,0.7s-0.7,0-1.3,0v-0.7C662,365.1,662.6,365.1,662.6,365.8z"/>
			<path class="st30" d="M667.9,362.5v0.7c0,0-0.7,0-1.3,0c-0.7,0-0.7-0.7,0-0.7C667.3,362.5,667.9,362.5,667.9,362.5z"/>
			<g>
				<path class="st38" d="M630.1,284.9c0.7,0.7,2,0.7,2,0l6.6-4c0.7-0.7,0.7-0.7,0-1.3l-6.6-4c-0.7-0.7-2-0.7-2,0l-6.6,4
					c-0.7,0.7-0.7,0.7,0,1.3L630.1,284.9z"/>
				<path class="st38" d="M619.5,290.9c0.7,0.7,2,0.7,2,0l6.6-4c0.7-0.7,0.7-0.7,0-1.3l-6.6-4c-0.7-0.7-2-0.7-2,0l-6.6,4
					c-0.7,0.7-0.7,0.7,0,1.3L619.5,290.9z"/>
				<path class="st38" d="M608.9,297.5c0.7,0.7,2,0.7,2,0l6.6-4c0.7-0.7,0.7-0.7,0-1.3l-6.6-4c-0.7-0.7-2-0.7-2,0l-6.6,4
					c-0.7,0.7-0.7,0.7,0,1.3L608.9,297.5z"/>
				<path class="st38" d="M598.3,303.5c0.7,0.7,2,0.7,2,0l6.6-4c0.7-0.7,0.7-0.7,0-1.3l-6.6-4c-0.7-0.7-2-0.7-2,0l-6.6,4
					c-0.7,0.7-0.7,0.7,0,1.3L598.3,303.5z"/>
				<path class="st38" d="M588.4,309.4c0.7,0.7,2,0.7,2,0l6.6-4c0.7-0.7,0.7-0.7,0-1.3l-6.6-4c-0.7-0.7-2-0.7-2,0l-6.6,4
					c-0.7,0.7-0.7,0.7,0,1.3L588.4,309.4z"/>
				<path class="st38" d="M577.8,315.4c0.7,0.7,2,0.7,2,0l6.6-4c0.7-0.7,0.7-0.7,0-1.3l-6.6-4c-0.7-0.7-2-0.7-2,0l-6.6,4
					c-0.7,0.7-0.7,0.7,0,1.3L577.8,315.4z"/>
				<path class="st38" d="M567.2,322c0.7,0.7,2,0.7,2,0l6.6-4c0.7-0.7,0.7-0.7,0-1.3l-6.6-4c-0.7-0.7-2-0.7-2,0l-6.6,4
					c-0.7,0.7-0.7,0.7,0,1.3L567.2,322z"/>
				<path class="st38" d="M556.6,328c0.7,0.7,2,0.7,2,0l6.6-4c0.7-0.7,0.7-0.7,0-1.3l-6.6-4c-0.7-0.7-2-0.7-2,0l-6.6,4
					c-0.7,0.7-0.7,0.7,0,1.3L556.6,328z"/>
				<path class="st38" d="M546,334c0.7,0.7,2,0.7,2,0l6.6-4c0.7-0.7,0.7-0.7,0-1.3l-6.6-4c-0.7-0.7-2-0.7-2,0l-6.6,4
					c-0.7,0.7-0.7,0.7,0,1.3L546,334z"/>
				<path class="st38" d="M535.4,339.9c0.7,0.7,2,0.7,2,0l6.6-4c0.7-0.7,0.7-0.7,0-1.3l-6.6-4c-0.7-0.7-2-0.7-2,0l-6.6,4
					c-0.7,0.7-0.7,0.7,0,1.3L535.4,339.9z"/>
				<path class="st38" d="M524.8,345.9c0.7,0.7,2,0.7,2,0l6.6-4c0.7-0.7,0.7-0.7,0-1.3l-6.6-4c-0.7-0.7-2-0.7-2,0l-6.6,4
					c-0.7,0.7-0.7,0.7,0,1.3L524.8,345.9z"/>
				<path class="st38" d="M514.2,352.5c0.7,0.7,2,0.7,2.7,0l6.6-4c0.7-0.7,0.7-0.7,0-1.3l-6.6-4c-0.7-0.7-2-0.7-2.7,0l-6.6,4
					c-0.7,0.7-0.7,0.7,0,1.3L514.2,352.5z"/>
				<path class="st38" d="M499.6,360.5c0.7,0.7,2,0.7,2,0l9.3-5.3c0.7-0.7,0.7-0.7,0-1.3l-6.6-4c-0.7-0.7-2-0.7-2,0l-9.3,5.3
					c-0.7,0.7-0.7,0.7,0,1.3L499.6,360.5z"/>
				<path class="st38" d="M634.8,270.3c0.7,0.7,2,0.7,2,0l6.6-4c0.7-0.7,0.7-0.7,0-1.3l-6.6-4c-0.7-0.7-2-0.7-2,0l-6.6,4
					c-0.7,0.7-0.7,0.7,0,1.3L634.8,270.3z"/>
				<path class="st38" d="M624.2,277c0.7,0.7,2,0.7,2,0l6.6-4c0.7-0.7,0.7-0.7,0-1.3l-6.6-4c-0.7-0.7-2-0.7-2,0l-6.6,4
					c-0.7,0.7-0.7,0.7,0,1.3L624.2,277z"/>
				<path class="st38" d="M614.2,269.7c0.7,0.7,2,0.7,2,0l5.3-3.3c0.7-0.7,0.7-0.7,0-1.3l-3.3-2c-0.7-0.7-2-0.7-2,0l-5.3,3.3
					c-0.7,0.7-0.7,0.7,0,1.3L614.2,269.7z"/>
				<path class="st38" d="M624.8,263.7c0.7,0.7,2,0.7,2,0l5.3-3.3c0.7-0.7,0.7-0.7,0-1.3l-2.7-1.3c-0.7-0.7-2-0.7-2,0l-5.3,3.3
					c-0.7,0.7-0.7,0.7,0,1.3L624.8,263.7z"/>
				<path class="st38" d="M605,275.6c0.7,0.7,2,0.7,2,0l5.3-3.3c0.7-0.7,0.7-0.7,0-1.3l-3.3-2c-0.7-0.7-2-0.7-2,0l-5.3,3.3
					c-0.7,0.7-0.7,0.7,0,1.3L605,275.6z"/>
				<path class="st38" d="M595,280.9c0.7,0.7,2,0.7,2,0l5.3-3.3c0.7-0.7,0.7-0.7,0-1.3l-3.3-2c-0.7-0.7-2-0.7-2,0l-5.3,3.3
					c-0.7,0.7-0.7,0.7,0,1.3L595,280.9z"/>
				<path class="st38" d="M585.1,286.3c0.7,0.7,2,0.7,2,0l5.3-3.3c0.7-0.7,0.7-0.7,0-1.3l-2.7-1.3c-0.7-0.7-2-0.7-2,0l-5.3,3.3
					c-0.7,0.7-0.7,0.7,0,1.3L585.1,286.3z"/>
				<path class="st38" d="M575.8,292.2c0.7,0.7,2,0.7,2,0l5.3-3.3c0.7-0.7,0.7-0.7,0-1.3l-3.3-2c-0.7-0.7-2-0.7-2,0l-5.3,3.3
					c-0.7,0.7-0.7,0.7,0,1.3L575.8,292.2z"/>
				<path class="st38" d="M565.9,297.5c0.7,0.7,2,0.7,2,0l5.3-3.3c0.7-0.7,0.7-0.7,0-1.3l-2.7-1.3c-0.7-0.7-2-0.7-2,0l-5.3,3.3
					c-0.7,0.7-0.7,0.7,0,1.3L565.9,297.5z"/>
				<path class="st38" d="M555.9,303.5c0.7,0.7,2,0.7,2,0l5.3-3.3c0.7-0.7,0.7-0.7,0-1.3l-3.3-2c-0.7-0.7-2-0.7-2,0l-5.3,3.3
					c-0.7,0.7-0.7,0.7,0,1.3L555.9,303.5z"/>
				<path class="st38" d="M546.7,308.8c0.7,0.7,2,0.7,2,0l5.3-3.3c0.7-0.7,0.7-0.7,0-1.3l-3.3-2c-0.7-0.7-2-0.7-2,0l-5.3,3.3
					c-0.7,0.7-0.7,0.7,0,1.3L546.7,308.8z"/>
				<path class="st38" d="M536.7,314.7c0.7,0.7,2,0.7,2,0l5.3-3.3c0.7-0.7,0.7-0.7,0-1.3l-3.3-2c-0.7-0.7-2-0.7-2,0l-5.3,3.3
					c-0.7,0.7-0.7,0.7,0,1.3L536.7,314.7z"/>
				<path class="st38" d="M527.4,320c0.7,0.7,2,0.7,2,0l5.3-3.3c0.7-0.7,0.7-0.7,0-1.3l-3.3-2c-0.7-0.7-2-0.7-2,0l-5.3,3.3
					c-0.7,0.7-0.7,1.3,0,1.3L527.4,320z"/>
				<path class="st38" d="M517.5,326c0.7,0.7,2,0.7,2,0l5.3-3.3c0.7-0.7,0.7-0.7,0-1.3l-3.3-2c-0.7-0.7-2-0.7-2,0l-5.3,3.3
					c-0.7,0.7-0.7,0.7,0,1.3L517.5,326z"/>
				<path class="st38" d="M507.6,331.3c0.7,0.7,2,0.7,2,0l5.3-3.3c0.7-0.7,0.7-0.7,0-1.3l-3.3-2c-0.7-0.7-2-0.7-2,0l-5.3,3.3
					c-0.7,0.7-0.7,0.7,0,1.3L507.6,331.3z"/>
				<path class="st38" d="M497.6,337.3c0.7,0.7,2,0.7,2.7,0l5.3-3.3c0.7-0.7,0.7-0.7,0-1.3l-3.3-2c-0.7-0.7-2-0.7-2,0L495,334
					c-0.7,0.7-0.7,0.7,0,1.3L497.6,337.3z"/>
				<path class="st38" d="M488.3,342.6c0.7,0.7,2,0.7,2.7,0l5.3-3.3c0.7-0.7,0.7-0.7,0-1.3l-3.3-2c-0.7-0.7-2-0.7-2,0l-5.3,3.3
					c-0.7,0.7-0.7,0.7,0,1.3L488.3,342.6z"/>
				<path class="st38" d="M478.4,347.9c0.7,0.7,2,0.7,2,0l5.3-3.3c0.7-0.7,0.7-0.7,0-1.3l-3.3-2c-0.7-0.7-2-0.7-2,0l-5.3,3.3
					c-0.7,0.7-0.7,0.7,0,1.3L478.4,347.9z"/>
				<path class="st38" d="M469.1,353.8c0.7,0.7,2,0.7,2,0l5.3-3.3c0.7-0.7,0.7-0.7,0-1.3l-3.3-2c-0.7-0.7-2-0.7-2,0l-5.3,3.3
					c-0.7,0.7-0.7,0.7,0,1.3L469.1,353.8z"/>
				<path class="st38" d="M459.9,359.1c0.7,0.7,2,0.7,2,0l5.3-3.3c0.7-0.7,0.7-0.7,0-1.3l-3.3-1.3c-0.7-0.7-2-0.7-2,0l-5.3,3.3
					c-0.7,0.7-0.7,0.7,0,1.3L459.9,359.1z"/>
				<path class="st38" d="M449.9,364.4c0.7,0.7,2,0.7,2,0l5.3-3.3c0.7-0.7,0.7-0.7,0-1.3l-3.3-2c-0.7-0.7-2-0.7-2,0l-5.3,3.3
					c-0.7,0.7-0.7,0.7,0,1.3L449.9,364.4z"/>
				<path class="st38" d="M440.6,370.4c0.7,0.7,2,0.7,2,0l5.3-3.3c0.7-0.7,0.7-0.7,0-1.3l-3.3-2c-0.7-0.7-2-0.7-2.7,0l-4.6,3.3
					c-0.7,0.7-0.7,0.7,0,1.3L440.6,370.4z"/>
				<path class="st38" d="M613.6,282.9c0.7,0.7,2,0.7,2,0l6.6-4c0.7-0.7,0.7-0.7,0-1.3l-6.6-4c-0.7-0.7-2-0.7-2,0l-6.6,4
					c-0.7,0.7-0.7,0.7,0,1.3L613.6,282.9z"/>
				<path class="st38" d="M603,288.9c0.7,0.7,2,0.7,2,0l6.6-4c0.7-0.7,0.7-0.7,0-1.3l-6.6-4c-0.7-0.7-2-0.7-2,0l-6.6,4
					c-0.7,0.7-0.7,0.7,0,1.3L603,288.9z"/>
				<path class="st38" d="M592.4,294.9c0.7,0.7,2,0.7,2,0l6.6-4c0.7-0.7,0.7-0.7,0-1.3l-6.6-4c-0.7-0.7-2-0.7-2,0l-6.6,4
					c-0.7,0.7-0.7,0.7,0,1.3L592.4,294.9z"/>
				<path class="st38" d="M581.8,300.8c0.7,0.7,2,0.7,2,0l6.6-4c0.7-0.7,0.7-0.7,0-1.3l-6.6-4c-0.7-0.7-2-0.7-2,0l-6.6,4
					c-0.7,0.7-0.7,0.7,0,1.3L581.8,300.8z"/>
				<path class="st38" d="M571.2,307.5c0.7,0.7,2,0.7,2,0l6.6-4c0.7-0.7,0.7-0.7,0-1.3l-6.6-4c-0.7-0.7-2-0.7-2,0l-6.6,4
					c-0.7,0.7-0.7,0.7,0,1.3L571.2,307.5z"/>
				<path class="st38" d="M560.6,313.4c0.7,0.7,2,0.7,2,0l6.6-4c0.7-0.7,0.7-0.7,0-1.3l-6.6-4c-0.7-0.7-2-0.7-2,0l-6.6,4
					c-0.7,0.7-0.7,0.7,0,1.3L560.6,313.4z"/>
				<path class="st38" d="M550,319.4c0.7,0.7,2,0.7,2,0l6.6-4c0.7-0.7,0.7-0.7,0-1.3l-6.6-4c-0.7-0.7-2-0.7-2,0l-6.6,4
					c-0.7,0.7-0.7,0.7,0,1.3L550,319.4z"/>
				<path class="st38" d="M539.4,325.3c0.7,0.7,2,0.7,2,0l6.6-4c0.7-0.7,0.7-0.7,0-1.3l-6.6-4c-0.7-0.7-2-0.7-2,0l-6.6,4
					c-0.7,0.7-0.7,0.7,0,1.3L539.4,325.3z"/>
				<path class="st38" d="M528.8,331.3c0.7,0.7,2,0.7,2,0l6.6-4c0.7-0.7,0.7-0.7,0-1.3l-6.6-4c-0.7-0.7-2-0.7-2,0l-6.6,4
					c-0.7,0.7-0.7,0.7,0,1.3L528.8,331.3z"/>
				<path class="st38" d="M518.2,337.9c0.7,0.7,2,0.7,2,0l6.6-4c0.7-0.7,0.7-0.7,0-1.3l-6.6-4c-0.7-0.7-2-0.7-2,0l-6.6,4
					c-0.7,0.7-0.7,0.7,0,1.3L518.2,337.9z"/>
				<path class="st38" d="M507.6,343.9c0.7,0.7,2,0.7,2,0l6.6-4c0.7-0.7,0.7-0.7,0-1.3l-6.6-4c-0.7-0.7-2-0.7-2,0l-6.6,4
					c-0.7,0.7-0.7,0.7,0,1.3L507.6,343.9z"/>
				<path class="st38" d="M479.7,359.8c0.7,0.7,1.3,0.7,2,0l5.3-3.3c0.7-0.7,0.7-0.7,0-1.3l-6.6-4c-0.7-0.7-1.3-0.7-2,0l-5.3,3.3
					c-0.7,0.7-0.7,0.7,0,1.3L479.7,359.8z"/>
				<path class="st38" d="M470.5,365.1c0.7,0.7,1.3,0.7,2,0l5.3-3.3c0.7-0.7,0.7-0.7,0-1.3l-6.6-4c-0.7-0.7-1.3-0.7-2,0l-5.3,4
					c-0.7,0.7-0.7,0.7,0,1.3L470.5,365.1z"/>
				<path class="st38" d="M460.5,371.1c0.7,0.7,1.3,0.7,2,0l5.3-3.3c0.7-0.7,0.7-0.7,0-1.3l-6.6-4c-0.7-0.7-1.3-0.7-2,0l-5.3,3.3
					c-0.7,0.7-0.7,0.7,0,1.3L460.5,371.1z"/>
				<path class="st38" d="M451.2,376.4c0.7,0.7,1.3,0.7,2,0l5.3-3.3c0.7-0.7,0.7-0.7,0-1.3l-6.6-4c-0.7-0.7-1.3-0.7-2,0l-5.3,3.3
					c-0.7,0.7-0.7,0.7,0,1.3L451.2,376.4z"/>
				<path class="st38" d="M490.3,365.8c0.7,0.7,1.3,0.7,2,0l5.3-3.3c0.7-0.7,0.7-0.7,0-1.3l-6.6-4c-0.7-0.7-1.3-0.7-2,0l-5.3,4
					c-0.7,0.7-0.7,0.7,0,1.3L490.3,365.8z"/>
				<path class="st38" d="M481.1,371.7c0.7,0.7,1.3,0.7,2,0l5.3-3.3c0.7-0.7,0.7-0.7,0-1.3l-6.6-4c-0.7-0.7-1.3-0.7-2,0l-5.3,3.3
					c-0.7,0.7-0.7,0.7,0,1.3L481.1,371.7z"/>
				<path class="st38" d="M471.1,377c0.7,0.7,1.3,0.7,2,0l5.3-3.3c0.7-0.7,0.7-0.7,0-1.3l-6.6-4c-0.7-0.7-1.3-0.7-2,0l-5.3,3.3
					c-0.7,0.7-0.7,0.7,0,1.3L471.1,377z"/>
				<path class="st38" d="M500.3,371.7c0.7,0.7,1.3,0.7,2,0l5.3-3.3c0.7-0.7,0.7-0.7,0-1.3l-6.6-4c-0.7-0.7-1.3-0.7-2,0l-5.3,3.3
					c-0.7,0-0.7,0.7,0,1.3L500.3,371.7z"/>
				<path class="st38" d="M491,377c0.7,0.7,1.3,0.7,2,0l5.3-3.3c0.7-0.7,0.7-0.7,0-1.3l-6.6-4c-0.7-0.7-1.3-0.7-2,0l-5.3,3.3
					c-0.7,0.7-0.7,0.7,0,1.3L491,377z"/>
				<path class="st38" d="M481.7,383c0.7,0.7,1.3,0.7,2,0l5.3-3.3c0.7-0.7,0.7-0.7,0-1.3l-6.6-4c-0.7-0.7-1.3-0.7-2,0l-5.3,3.3
					c-0.7,0-0.7,0.7,0,1.3L481.7,383z"/>
				<path class="st38" d="M471.8,388.3c0.7,0.7,1.3,0.7,2,0l5.3-3.3c0.7-0.7,0.7-0.7,0-1.3l-16.6-9.3c-0.7-0.7-1.3-0.7-2,0l-5.3,3.3
					c-0.7,0.7-0.7,0.7,0,1.3L471.8,388.3z"/>
				<path class="st38" d="M510.9,377.7c0.7,0.7,1.3,0.7,2,0l5.3-3.3c0.7-0.7,0.7-0.7,0-1.3l-6.6-4c-0.7-0.7-1.3-0.7-2,0l-5.3,3.3
					c-0.7,0.7-0.7,0.7,0,1.3L510.9,377.7z"/>
				<path class="st38" d="M520.2,372.4c0.7,0,1.3,0,2,0l4.6-2.7c0.7,0,0.7-0.7,0-1.3l-5.3-3.3c-0.7,0-1.3-0.7-2,0l-4.6,2.7
					c-0.7,0-0.7,0.7,0,1.3L520.2,372.4z"/>
				<path class="st38" d="M530.8,378.4c0.7,0,1.3,0,2,0l4.6-2.7c0.7,0,0.7-0.7,0-1.3l-5.3-3.3c-0.7,0-1.3,0-2,0l-4.6,2.7
					c-0.7,0-0.7,0.7,0,1.3L530.8,378.4z"/>
				<path class="st38" d="M540,373.1c0.7,0,1.3,0,2,0l4.6-2.7c0.7,0,0.7-0.7,0-1.3l-5.3-3.3c-0.7,0-1.3-0.7-2,0l-4.6,2.7
					c-0.7,0-0.7,0.7,0,1.3L540,373.1z"/>
				<path class="st38" d="M521.5,383.7c0.7,0,1.3,0,2,0l4.6-2.7c0.7,0,0.7-0.7,0-1.3l-5.3-3.3c-0.7,0-1.3,0-2,0l-4.6,2.7
					c-0.7,0-0.7,0.7,0,1.3L521.5,383.7z"/>
				<path class="st38" d="M501.6,383.7c0.7,0.7,1.3,0.7,2,0l5.3-3.3c0.7,0,0.7-0.7,0-1.3l-6.6-4c-0.7-0.7-1.3-0.7-2,0l-5.3,3.3
					c-0.7,0.7-0.7,0.7,0,1.3L501.6,383.7z"/>
				<path class="st38" d="M491.7,389c0.7,0.7,1.3,0.7,2,0l5.3-3.3c0.7-0.7,0.7-0.7,0-1.3l-6.6-4c-0.7-0.7-1.3-0.7-2,0l-5.3,3.3
					c-0.7,0.7-0.7,0.7,0,1.3L491.7,389z"/>
				<path class="st38" d="M512.2,389.6c0.7,0.7,1.3,0.7,2,0l5.3-3.3c0.7-0.7,0.7-0.7,0-1.3l-6.6-4c-0.7-0.7-1.3-0.7-2,0l-5.3,3.3
					c-0.7,0.7-0.7,0.7,0,1.3L512.2,389.6z"/>
				<path class="st38" d="M502.3,394.9c0.7,0.7,1.3,0.7,2,0l5.3-3.3c0.7-0.7,0.7-0.7,0-1.3l-6.6-4c-0.7-0.7-1.3-0.7-2,0l-5.3,3.3
					c-0.7,0.7-0.7,0.7,0,1.3L502.3,394.9z"/>
				<path class="st38" d="M493,400.2c0.7,0.7,1.3,0.7,2,0l5.3-3.3c0.7-0.7,0.7-0.7,0-1.3l-16.6-9.3c-0.7-0.7-1.3-0.7-2,0l-5.3,3.3
					c-0.7,0.7-0.7,0.7,0,1.3L493,400.2z"/>
				<path class="st38" d="M489.7,354.5c0.7,0.7,2,0.7,2,0l13.9-8c0.7-0.7,0.7-0.7,0-1.3l-6.6-4c-0.7-0.7-2-0.7-2.7,0l-13.9,8
					c-0.7,0.7-0.7,0.7,0,1.3L489.7,354.5z"/>
				<path class="st38" d="M638.1,292.2c0.7,0.7,2,0.7,2.7,0l6.6-4c0.7-0.7,0.7-0.7,0-1.3l-6.6-4c-0.7-0.7-2-0.7-2,0l-6.6,4
					c-0.7,0.7-0.7,0.7,0,1.3L638.1,292.2z"/>
				<path class="st38" d="M627.5,298.2c0.7,0.7,2,0.7,2,0l6.6-4c0.7-0.7,0.7-0.7,0-1.3l-6.6-4c-0.7-0.7-2-0.7-2,0l-6.6,4
					c-0.7,0.7-0.7,0.7,0,1.3L627.5,298.2z"/>
				<path class="st38" d="M616.9,304.8c0.7,0.7,2,0.7,2,0l6.6-4c0.7-0.7,0.7-0.7,0-1.3l-6.6-4c-0.7-0.7-2-0.7-2,0l-6.6,4
					c-0.7,0.7-0.7,0.7,0,1.3L616.9,304.8z"/>
				<path class="st38" d="M606.3,310.8c0.7,0.7,2,0.7,2,0l6.6-4c0.7-0.7,0.7-0.7,0-1.3l-6.6-4c-0.7-0.7-2-0.7-2,0l-6.6,4
					c-0.7,0.7-0.7,0.7,0,1.3L606.3,310.8z"/>
				<path class="st38" d="M595.7,316.7c0.7,0.7,2,0.7,2,0l6.6-4c0.7-0.7,0.7-0.7,0-1.3l-6.6-4c-0.7-0.7-2-0.7-2,0l-6,4
					c-0.7,0.7-0.7,0.7,0,1.3L595.7,316.7z"/>
				<path class="st38" d="M585.1,322.7c0.7,0.7,2,0.7,2,0l6.6-4c0.7-0.7,0.7-0.7,0-1.3l-6.6-4c-0.7-0.7-2-0.7-2,0l-6.6,4
					c-0.7,0.7-0.7,0.7,0,1.3L585.1,322.7z"/>
				<path class="st38" d="M574.5,328.7c0.7,0.7,2,0.7,2,0l6.6-4c0.7-0.7,0.7-0.7,0-1.3l-6.6-4c-0.7-0.7-2-0.7-2,0l-6.6,4
					c-0.7,0.7-0.7,0.7,0,1.3L574.5,328.7z"/>
				<path class="st38" d="M563.9,335.3c0.7,0.7,2,0.7,2,0l6.6-4c0.7-0.7,0.7-0.7,0-1.3l-6.6-4c-0.7-0.7-2-0.7-2,0l-6.6,4
					c-0.7,0.7-0.7,0.7,0,1.3L563.9,335.3z"/>
				<path class="st38" d="M553.3,341.2c0.7,0.7,2,0.7,2,0l6.6-4c0.7-0.7,0.7-0.7,0-1.3l-6.6-4c-0.7-0.7-2-0.7-2,0l-6.6,4
					c-0.7,0.7-0.7,0.7,0,1.3L553.3,341.2z"/>
				<path class="st38" d="M542.7,347.2c0.7,0.7,2,0.7,2,0l6.6-4c0.7-0.7,0.7-0.7,0-1.3l-6.6-4c-0.7-0.7-2-0.7-2,0l-6.6,4
					c-0.7,0.7-0.7,0.7,0,1.3L542.7,347.2z"/>
				<path class="st38" d="M532.1,353.2c0.7,0.7,2,0.7,2,0l6.6-4c0.7-0.7,0.7-0.7,0-1.3l-6.6-4c-0.7-0.7-2-0.7-2,0l-6.6,4
					c-0.7,0.7-0.7,0.7,0,1.3L532.1,353.2z"/>
				<path class="st38" d="M510.2,366.4c0.7,0.7,2,0.7,2,0l18.6-10.6c0.7-0.7,0.7-0.7,0-1.3l-6.6-4c-0.7-0.7-2-0.7-2,0l-18.6,10.6
					c-0.7,0.7-0.7,0.7,0,1.3L510.2,366.4z"/>
				<path class="st38" d="M643.4,301.5c0.7,0.7,2,0.7,2,0l6.6-4c0.7-0.7,0.7-0.7,0-1.3l-6.6-4c-0.7-0.7-2-0.7-2,0l-6.6,4
					c-0.7,0.7-0.7,0.7,0,1.3L643.4,301.5z"/>
				<path class="st38" d="M640.8,279c0.7,0.7,2,0.7,2,0l10.6-6c0.7-0.7,0.7-0.7,0-1.3l-6.6-4c-0.7-0.7-2-0.7-2,0l-10.6,6
					c-0.7,0.7-0.7,0.7,0,1.3L640.8,279z"/>
				<path class="st38" d="M648.7,286.3c0.7,0.7,2,0.7,2,0l12.6-7.3c0.7-0.7,0.7-0.7,0-1.3l-6.6-4c-0.7-0.7-2-0.7-2,0l-11.9,7.3
					c-0.7,0.7-0.7,0.7,0,1.3L648.7,286.3z"/>
				<path class="st38" d="M654,295.5c0.7,0.7,2,0.7,2,0l17.9-10.6c0.7-0.7,0.7-0.7,0-1.3l-6.6-4c-0.7-0.7-2-0.7-2,0l-17.9,10.6
					c-0.7,0.7-0.7,0.7,0,1.3L654,295.5z"/>
				<path class="st38" d="M632.8,307.5c0.7,0.7,2,0.7,2,0l6.6-4c0.7-0.7,0.7-0.7,0-1.3l-6.6-4c-0.7-0.7-2-0.7-2,0l-6.6,4
					c-0.7,0.7-0.7,0.7,0,1.3L632.8,307.5z"/>
				<path class="st38" d="M622.2,313.4c0.7,0.7,2,0.7,2,0l6.6-4c0.7-0.7,0.7-0.7,0-1.3l-6.6-4c0,0.7-1.3,0.7-2,0.7l-6.6,4
					c-0.7,0.7-0.7,0.7,0,1.3L622.2,313.4z"/>
				<path class="st38" d="M664.6,301.5c0.7,0.7,2,0.7,2,0l6.6-4c0.7-0.7,0.7-0.7,0-1.3l-6.6-4c-0.7-0.7-2-0.7-2,0l-6.6,4
					c-0.7,0.7-0.7,0.7,0,1.3L664.6,301.5z"/>
				<path class="st38" d="M675.2,295.5c0.7,0.7,2,0.7,2,0l7.3-4c0.7-0.7,0.7-0.7,0-1.3l-6.6-4c-0.7-0.7-2-0.7-2.7,0l-7.3,4
					c-0.7,0.7-0.7,0.7,0,1.3L675.2,295.5z"/>
				<path class="st38" d="M654,307.5c0.7,0.7,2,0.7,2,0l6.6-4c0.7-0.7,0.7-0.7,0-1.3l-6.6-4c-0.7-0.7-2-0.7-2,0l-6.6,4
					c-0.7,0.7-0.7,0.7,0,1.3L654,307.5z"/>
				<path class="st38" d="M642.1,314.7c0.7,0.7,2,0.7,2,0l8-4.6c0.7-0.7,0.7-0.7,0-1.3l-6.6-4c-0.7-0.7-2-0.7-2,0l-8,4.6
					c-0.7,0.7-0.7,0.7,0,1.3L642.1,314.7z"/>
				<path class="st38" d="M592.4,343.2c0.7,0.7,2,0.7,2,0l45.7-26.5c0.7-0.7,0.7-0.7,0-1.3l-6.6-4c-0.7-0.7-2-0.7-2,0l-45.7,26.5
					c-0.7,0.7-0.7,0.7,0,1.3L592.4,343.2z"/>
				<path class="st38" d="M611.6,320c0.7,0.7,2,0.7,2,0l6.6-4c0.7-0.7,0.7-0.7,0-1.3l-6.6-4c-0.7-0.7-2-0.7-2,0l-6.6,4
					c-0.7,0.7-0.7,0.7,0,1.3L611.6,320z"/>
				<path class="st38" d="M601,326c0.7,0.7,2,0.7,2,0l6.6-4c0.7-0.7,0.7-0.7,0-1.3l-6.6-4c-0.7-0.7-2-0.7-2,0l-6.6,4
					c-0.7,0.7-0.7,0.7,0,1.3L601,326z"/>
				<path class="st38" d="M590.4,332c0.7,0.7,2,0.7,2,0l6.6-4c0.7-0.7,0.7-0.7,0-1.3l-6.6-4c-0.7-0.7-2-0.7-2,0l-6.6,4
					c-0.7,0.7-0.7,0.7,0,1.3L590.4,332z"/>
				<path class="st38" d="M579.8,337.9c0.7,0.7,2,0.7,2.7,0l6.6-4c0.7-0.7,0.7-0.7,0-1.3l-6.6-4c-0.7-0.7-2-0.7-2.7,0l-6.6,4
					c-0.7,0.7-0.7,0.7,0,1.3L579.8,337.9z"/>
				<path class="st38" d="M569.2,343.9c0.7,0.7,2,0.7,2,0l6.6-4c0.7-0.7,0.7-0.7,0-1.3l-6.6-4c-0.7-0.7-2-0.7-2,0l-6.6,4
					c-0.7,0.7-0.7,0.7,0,1.3L569.2,343.9z"/>
				<path class="st38" d="M558.6,350.5c0.7,0.7,2,0.7,2,0l6.6-4c0.7-0.7,0.7-0.7,0-1.3l-6.6-4c-0.7-0.7-2-0.7-2,0l-6.6,4
					c-0.7,0.7-0.7,0.7,0,1.3L558.6,350.5z"/>
				<path class="st38" d="M548,356.5c0.7,0.7,2,0.7,2.7,0l6.6-4c0.7-0.7,0.7-0.7,0-1.3l-6.6-4c-0.7-0.7-2-0.7-2,0l-6.6,4
					c-0.7,0.7-0.7,0.7,0,1.3L548,356.5z"/>
				<path class="st38" d="M581.8,349.2c0.7,0.7,2,0.7,2,0l6.6-4c0.7-0.7,0.7-0.7,0-1.3l-6.6-4c-0.7-0.7-2-0.7-2,0l-6.6,4
					c-0.7,0.7-0.7,0.7,0,1.3L581.8,349.2z"/>
				<path class="st38" d="M571.2,355.2c0.7,0.7,2,0.7,2,0l6.6-4c0.7-0.7,0.7-0.7,0-1.3l-6.6-4c-0.7-0.7-2-0.7-2,0l-6.6,4
					c-0.7,0.7-0.7,0.7,0,1.3L571.2,355.2z"/>
				<path class="st38" d="M560.6,361.8c0.7,0.7,2,0.7,2,0l6.6-4c0.7-0.7,0.7-0.7,0-1.3l-6.6-4c-0.7-0.7-2-0.7-2,0l-6.6,4
					c-0.7,0.7-0.7,0.7,0,1.3L560.6,361.8z"/>
				<path class="st38" d="M550,367.8c0.7,0.7,2,0.7,2,0l6.6-4c0.7-0.7,0.7-0.7,0-1.3l-6.6-4c-0.7-0.7-2-0.7-2,0l-6.6,4
					c-0.7,0.7-0.7,0.7,0,1.3L550,367.8z"/>
				<path class="st38" d="M529.4,367.1c0.7,0.7,2,0.7,2,0l14.6-8.6c0.7-0.7,0.7-0.7,0-1.3l-6.6-4c-0.7-0.7-2-0.7-2,0l-13.9,8.6
					c-0.7,0.7-0.7,0.7,0,1.3L529.4,367.1z"/>
			</g>
			
				<linearGradient id="SVGID_29_" gradientUnits="userSpaceOnUse" x1="-2504.2749" y1="-55.9106" x2="-2507.1084" y2="-40.0012" gradientTransform="matrix(-1 0 0 -1 -2020.0637 154.09)">
				<stop  offset="0" style="stop-color:#7F8A94"/>
				<stop  offset="1" style="stop-color:#C1C8CC"/>
			</linearGradient>
			<path class="st39" d="M609.6,227.9L576.5,71.6c-0.7-2-1.3-3.3-3.3-4l-4.6-2c-1.3-0.7-2.7,0-4.6,0.7L365.1,173.6
				c-4,2-6,7.3-5.3,11.3l34.5,164.3c0.7,2,1.3,3.3,2.7,4l4,2c1.3,0.7,3.3,0.7,4.6-0.7l198.8-114.6
				C608.3,237.2,610.9,231.9,609.6,227.9z"/>
			<path class="st40" d="M609.6,227.9c0.7,4-1.3,9.3-5.3,11.3L405.5,353.8c-3.3,2-7.3,0.7-8-3.3l-34.5-164.3
				c-0.7-4,1.3-9.3,5.3-11.3L568.5,67.6c4-2,7.3,0,8,4L609.6,227.9z"/>
			<path class="st30" d="M375,185.5c0-0.7,0-1.3,0.7-2L565.9,80.8c0.7,0,1.3,0,1.3,0.7l31.1,146.4c0,0.7,0,1.3-0.7,2L408.2,339.3
				c-0.7,0-1.3,0-1.3-0.7L375,185.5z"/>
			<polygon class="st32" points="418.8,346.5 410.2,351.9 408.2,346.5 417.4,341.2 			"/>
			<polygon class="st32" points="599,242.5 590.4,247.8 588.4,241.9 597.7,236.6 			"/>
			
				<linearGradient id="SVGID_30_" gradientUnits="userSpaceOnUse" x1="319.5997" y1="-186.783" x2="316.3595" y2="-201.7019" gradientTransform="matrix(1 0 0 -1 98.4482 154.09)">
				<stop  offset="0" style="stop-color:#CDD5D9"/>
				<stop  offset="1" style="stop-color:#ACB9C2"/>
			</linearGradient>
			<polygon class="st41" points="424.1,349.9 415.5,354.5 408.8,346.5 416.8,341.9 			"/>
			<polygon class="st40" points="408.8,346.5 410.2,351.9 415.5,354.5 			"/>
			
				<linearGradient id="SVGID_31_" gradientUnits="userSpaceOnUse" x1="499.8964" y1="-82.4552" x2="496.6177" y2="-97.5496" gradientTransform="matrix(1 0 0 -1 98.4482 154.09)">
				<stop  offset="0" style="stop-color:#CDD5D9"/>
				<stop  offset="1" style="stop-color:#ACB9C2"/>
			</linearGradient>
			<polygon class="st42" points="604.3,245.8 595.7,250.5 589.1,242.5 597.7,237.2 			"/>
			<polygon class="st40" points="589.1,242.5 590.4,247.2 595.7,250.5 			"/>
			
				<linearGradient id="SVGID_32_" gradientUnits="userSpaceOnUse" x1="352.4849" y1="31.4642" x2="279.801" y2="-161.4258" gradientTransform="matrix(1 0 0 -1 98.4482 154.09)">
				<stop  offset="0" style="stop-color:#FFFFFF"/>
				<stop  offset="1" style="stop-color:#000000"/>
			</linearGradient>
			<path class="st43" d="M473.1,131.9L375,184.2c-0.7,0-0.7,1.3-0.7,2l32.5,153.1c0,0.7,0.7,0.7,1.3,0.7l17.9-10.6
				C432,243.8,455.2,174.9,473.1,131.9z"/>
		</g>
		<path class="st44" d="M707.7,428.7c0,0-19.9-122.6-5.3-155.1l125.9-79.5c0,0,45.7-29.2,79.5-17.2c33.8,11.9,28.5,14.6,31.1,41.7
			c2.7,27.2-8.6,107.3-26.5,149.1c-17.9,41.7-22.5,83.5-16.6,104.7c6,21.2,27.8,86.1-23.2,124.6c-51,38.4-88.8,47.7-131.9,42.4
			c-44.4-6-105.4-49.7-136.5-69.6L707.7,428.7z"/>
		<path class="st45" d="M764,368.4c0,0,13.9-59,17.9-59c4,0-8.6,59-9.3,76.2c-0.7,17.9,13.3-17.9,18.6-27.8s-8,16.6-9.9,62.9
			c-2.7,46.4,6,45.7,11.3,30.5c5.3-15.2,8.6,11.3-4,48.4c-12.6,37.1-37.1,59.6-63.6,53.7s-94.1-39.8-106-55.7
			c-11.9-15.9,2-36.4,5.3-35.8c2.7,1.3,81.5,25.8,81.5,1.3C704.4,438.7,764,368.4,764,368.4z"/>
		<path class="st46" d="M879.3,590.4c12.6-35.8,13.3-79.5,7.3-95.4c-7.3-19.9-15.9-51-13.9-74.9c2.7-23.2,21.2-84.8,25.2-75.5
			c3.3,8.6-16.6,62.3-6,48.4c10.6-13.3,37.1-116,44.4-136.5c-4,35.1-12.6,81.5-25.2,110c-17.9,41.7-22.5,83.5-16.6,104.7
			C901.2,492.3,920.4,551.3,879.3,590.4z"/>
		<path class="st47" d="M623.5,430c0,0-5.3-13.3-11.3-20.5c-6-6.6-7.3-14.6-14.6-13.3h-5.3c0,0-29.2-9.9-39.1-9.9
			c-9.9,0.7-25.2,17.9-29.2,21.9c-3.3,4-9.3,9.9-8,16.6c1.3,6.6-3.3,8.6,11.3,8c8-0.7,11.3,2,17.9,6.6c6.6,4,25.8,15.9,52.3,23.2
			S623.5,430,623.5,430z"/>
		<path class="st48" d="M517.5,424.7c-1.3-6.6,4.6-12.6,8-16.6c2-2,8-9.3,15.2-14.6c2.7,0,4.6,0,6,0c6,1.3,23.2,5.3,24.5,6
			c1.3,0,3.3,4,0,6.6s-7.3,8.6-7.3,11.3s0,11.9,1.3,15.2c1.3,2.7,40.4,18.6,51.7,25.2c-4.6,4-11.3,6.6-19.2,4
			c-25.8-8-45.7-19.2-52.3-23.2c-6.6-4-9.9-6.6-17.9-6.6C514.2,433.4,518.8,431.4,517.5,424.7z"/>
		<path class="st49" d="M680.5,365.8c2.7-20.5,0.7-64.3,11.3-84.2s78.9-12.6,76.9,62.3c-1.3,74.9-2,134.5-10.6,155.1
			c-8,19.9-25.2,55-64.3,36.4c-21.2-9.9-48.4-18.6-68.9-35.1c-3.3-2.7-6.6-17.2-9.3-19.9c-12.6-10.6-21.2-18.6-21.2-18.6l26.5-43.7
			l64.9,31.8C685.8,449.9,677.2,388.3,680.5,365.8z"/>
		<path class="st46" d="M685.1,94.1c9.3-7.3,16.6-3.3,21.2,5.3l0,0C683.8,102.7,685.1,94.1,685.1,94.1z"/>
		<path class="st50" d="M771.9,225.3c0,0-4.6-32.5-11.9-36.4c-8-4-24.5,1.3-29.2-2.7s-9.9-21.2-13.3-25.8
			c-3.3-4.6-11.3-19.2-12.6-26.5c-1.3-7.3,1.3-11.3-2.7-17.2c-4-6-7.3-34.5-4-49c3.3-13.9,26.5-48.4,73.6-45.7
			c47,2.7,70.9,39.8,72.2,66.3c1.3,26.5-9.9,59-1.3,76.2c8.6,17.2,16.6,29.8,31.8,35.1c0,0,23.2,25.8-37.1,40.4
			C775.9,255.1,771.9,225.3,771.9,225.3z"/>
		<path class="st51" d="M716.3,162.3c-2-2,0.7-4,0.7-4c4.6,0.7,10.6,9.3,11.9,11.9c2.7-2,6-5.3,9.9-10.6c8.6-11.9-3.3-44.4-3.3-44.4
			l6.6-1.3c0,0,5.3,13.3,8.6,35.8c3.3,21.9-17.9,42.4-20.5,41.1c-2.7-1.3-8.6-9.3-8.6-13.3c0-2,2-3.3,5.3-6
			C724.2,167.6,717.6,163.7,716.3,162.3z"/>
		<path class="st49" d="M709.7,45.7c0,5.3,5.3,13.9,17.2,25.2c11.3,10.6,28.5,17.2,45.7,21.2c17.2,3.3,34.5,3.3,49-2.7
			c10.6-4,17.9-9.9,21.9-17.2c0,0,9.3,23.2,15.2,59.6c5.3,31.1,34.5,76.2,47,88.1c12.6,11.9,1.3,45.1-36.4,61
			c-37.8,15.9-70.9,14.6-95.4,0c-4.6-2.7-9.9-6-14.6-8.6l0,0v-15.2c0,0-21.9-6.6-39.8-0.7c1.3-4,15.9-64.3,19.2-83.5
			c2.7-14.6-4-31.1-10.6-49c-6.6-1.3-15.9-4-18.6-13.3c-3.3-14.6-11.9-25.8-24.5-15.9C685.1,94.1,689.8,55,709.7,45.7z"/>
		<path class="st52" d="M709.7,45.7l4.6-7.3c1.3,8,5.3,13.9,13.3,21.9c11.3,10.6,27.8,18.6,44.4,21.9c17.2,3.3,34.5,3.3,49-2.7
			c10.6-4,15.9-9.9,19.2-17.2l2.7,9.3c-4,7.3-11.3,13.3-21.9,17.2c-14.6,5.3-31.8,6-49,2.7c-17.2-3.3-34.5-9.9-45.7-21.2
			C715,59.6,709.7,51,709.7,45.7z"/>
		<path class="st49" d="M821,79.5c-14.6,5.3-31.8,6-49,2.7c-17.2-3.3-33.1-11.3-44.4-21.9c-8-8-11.9-13.9-13.3-21.9
			c0,0,17.9-32.5,64.9-23.2c47,8.6,61.6,47.7,61.6,47.7C836.9,69.6,832.2,75.5,821,79.5z"/>
		<path class="st46" d="M718.3,119.9L718.3,119.9c0-25.2,9.9-39.1,14.6-43.7c0,0,0,0,0.7,0c-11.3,17.2-6,46.4-6,46.4
			C724.9,122.6,721.6,121.9,718.3,119.9z"/>
		<path class="st46" d="M714.3,57c0.7,1.3,2,2.7,3.3,4c-4,3.3-11.9,11.3-18.6,24.5C699.1,85.5,704.4,66.9,714.3,57z"/>
		<path class="st46" d="M838.9,289.6c-6.6,1.3-13.3,2-19.9,2c0-27.8-0.7-101.4-6-137.2L838.9,289.6z"/>
		<path class="st49" d="M840.9,141.8c0,0,57,90.1,64.9,120.6c4.6,17.9-46.4,47.7-65.6,34.5l-27.8-147.1L840.9,141.8z"/>
		<path class="st46" d="M902.5,253.8c-10.6-27.2-41.1-78.2-55-100.7l0,0c13.3,17.2,47,68.2,61,88.8
			C907.1,245.8,905.1,249.8,902.5,253.8z"/>
		<path class="st46" d="M821,89.5c11.3,25.2,13.9,68.9,13.9,68.9c-9.3-44.4-17.9-61-21.9-66.9C815.7,91.4,818.3,90.1,821,89.5z"/>
		<path class="st46" d="M755.4,131.2C764,171,758,257.1,758,257.1s-6.6-2-15.9-2.7C752.1,216,755.4,131.2,755.4,131.2z"/>
	</g>
	<path class="st6" d="M593.7,603.6l134.5,88.8c0,0,2-36.4,7.3-66.9s25.8-57.6,25.8-57.6c-4.6-49,20.5-80.8,20.5-80.8
		c-4-17.9,2.7-55.7,4.6-63.6c2-8,7.3,0,7.3,0l15.9,12.6l0.7,1.3c4,6.6,9.3,19.9,6,49.7c-3.3,29.8-21.9,112.6-21.9,112.6
		S764.7,703,756.7,718.9c-8,15.2-30.5,2.7-30.5,2.7l-143.8-90.1c-8-4.6-13.9-12.6-14.6-29.2C567.2,585.8,593.7,603.6,593.7,603.6z"
		/>
	
		<linearGradient id="SVGID_33_" gradientUnits="userSpaceOnUse" x1="-3030.3201" y1="-486.0756" x2="-2597.5767" y2="-486.0756" gradientTransform="matrix(-1 0 0 -1 -2020.0637 154.09)">
		<stop  offset="0" style="stop-color:#313E41"/>
		<stop  offset="1" style="stop-color:#191919"/>
	</linearGradient>
	<path class="st53" d="M580.5,630.1c0.7,0.7,1.3,1.3,2,1.3l143.8,89.5c0,0,16.6,9.3,26.5,2c9.3-2.7,18.6-15.2,27.8-33.8
		c11.3-23.2,23.2-30.5,23.2-30.5s147.8-86.8,171.6-99.4c23.9-12.6,14.6-32.5,14.6-32.5s15.9,13.3,19.2,17.9c3.3,4.6-2,20.5-2,20.5
		s-14.6,37.8-23.9,53c-9.3,15.2-21.9,23.2-21.9,23.2S783.2,748.1,770,752.1c-12.6,4-21.2-1.3-21.2-1.3s-159-104.7-167.6-110.7
		C575.2,636.1,577.8,632.8,580.5,630.1z"/>
	<g>
		<g>
			<defs>
				<polygon id="SVGID_34_" points="19.9,19.9 26.5,19.9 19.9,26.5 				"/>
			</defs>
			<defs>
				<polygon id="SVGID_35_" points="6.6,6.6 0,6.6 6.6,0 				"/>
			</defs>
			<clipPath id="SVGID_36_">
				<use xlink:href="#SVGID_34_"  style="overflow:visible;"/>
			</clipPath>
			<clipPath id="SVGID_37_" class="st54">
				<use xlink:href="#SVGID_35_"  style="overflow:visible;"/>
			</clipPath>
			
				<linearGradient id="SVGID_38_" gradientUnits="userSpaceOnUse" x1="-3032.104" y1="-446.3796" x2="-2817.1494" y2="-446.3796" gradientTransform="matrix(-1 0 0 -1 -2020.0637 154.09)">
				<stop  offset="0" style="stop-color:#FFFFFF"/>
				<stop  offset="1" style="stop-color:#000000"/>
			</linearGradient>
			<path class="st55" d="M996.6,562.6c0,0-155.1,92.8-174.9,103.4c-19.2,10.6-21.9,8-24.5,4.6c-0.7-1.3-0.7-3.3,0-5.3
				c4.6-4.6,7.3-6,7.3-6s147.8-86.8,171.6-99.4c23.9-12.6,14.6-32.5,14.6-32.5s15.9,13.3,19.2,17.9c0.7,1.3,1.3,3.3,1.3,5.3
				C1005.9,557.3,996.6,562.6,996.6,562.6z"/>
		</g>
	</g>
	
		<linearGradient id="SVGID_39_" gradientUnits="userSpaceOnUse" x1="-3032.104" y1="-446.3796" x2="-2817.1494" y2="-446.3796" gradientTransform="matrix(-1 0 0 -1 -2020.0637 154.09)">
		<stop  offset="0" style="stop-color:#FFFFFF"/>
		<stop  offset="1" style="stop-color:#FFFFFF"/>
	</linearGradient>
	<path class="st56" d="M996.6,562.6c0,0-155.1,92.8-174.9,103.4c-19.2,10.6-21.9,8-24.5,4.6c-0.7-1.3-0.7-3.3,0-5.3
		c4.6-4.6,7.3-6,7.3-6s147.8-86.8,171.6-99.4c23.9-12.6,14.6-32.5,14.6-32.5s15.9,13.3,19.2,17.9c0.7,1.3,1.3,3.3,1.3,5.3
		C1005.9,557.3,996.6,562.6,996.6,562.6z"/>
	
		<linearGradient id="SVGID_40_" gradientUnits="userSpaceOnUse" x1="-3030.5559" y1="-498.2573" x2="-2784.2869" y2="-498.2573" gradientTransform="matrix(-1 0 0 -1 -2020.0637 154.09)">
		<stop  offset="0" style="stop-color:#313E41"/>
		<stop  offset="1" style="stop-color:#191919"/>
	</linearGradient>
	<path class="st57" d="M766.6,748.8c7.3-11.9,27.8-59.6,34.5-74.9c3.3,0,8.6-2,19.2-7.3c19.2-10.6,174.9-103.4,174.9-103.4
		s9.3-5.3,15.2-12.6c0,6.6-3.3,15.2-3.3,15.2s-14.6,37.8-23.9,53c-9.3,15.2-21.9,23.2-21.9,23.2S783.2,748.8,770,752.7
		c-2,0.7-4,0.7-5.3,1.3C764.7,751.4,766,750.1,766.6,748.8z"/>
	
		<linearGradient id="SVGID_41_" gradientUnits="userSpaceOnUse" x1="-2839.8049" y1="-244.0259" x2="-2877.0569" y2="-309.735" gradientTransform="matrix(-1 0 0 -1 -2020.0637 154.09)">
		<stop  offset="0.1773" style="stop-color:#2E3638"/>
		<stop  offset="0.3599" style="stop-color:#414C4F"/>
		<stop  offset="0.6429" style="stop-color:#262D2F"/>
		<stop  offset="1" style="stop-color:#171B1C"/>
	</linearGradient>
	<path class="st58" d="M993.3,517.5l-3.3,9.9c0,0,9.3,19.2-14.6,32.5c-23.9,12.6-171.6,99.4-171.6,99.4s-12.6,7.3-23.2,30.5
		c-8.6,18.6-18.6,31.1-27.8,33.8l0,0c1.3-1.3,3.3-2.7,4-4.6c8-15.2,37.8-119.3,37.8-119.3S813,516.8,816.3,487
		c3.3-29.8-2-43.1-6-49.7l-0.7-1.3l-15.9-12.6c0,0-4-5.3-6.6-2.7l0,0c0,0-1.3-0.7,3.3-4c4.6-4,192.8-115.3,192.8-115.3
		s13.3-9.9,29.8,0c16.6,9.9,17.2,43.1,13.3,62.9c-4,20.5-25.2,114.6-25.2,114.6L993.3,517.5z"/>
	<g>
		<path class="st59" d="M737.5,669.2l-143.1-71.6c0,0-11.9-7.3-11.3-16.6c0.7-9.3,11.9-21.9,27.2-21.2c14.6,0.7,116.6,53,116.6,53
			s39.8,25.8,46.4,31.8c6,6.6,6,13.3-2,18.6C763.3,670.6,758,677.9,737.5,669.2z"/>
		
			<linearGradient id="SVGID_42_" gradientUnits="userSpaceOnUse" x1="-2693.4614" y1="-467.8048" x2="-2706.2957" y2="-439.2857" gradientTransform="matrix(-1 0 0 -1 -2020.0637 154.09)">
			<stop  offset="0" style="stop-color:#535F63"/>
			<stop  offset="0.8106" style="stop-color:#373F42"/>
		</linearGradient>
		<path class="st60" d="M610.3,560.6c14.6,0.7,116.6,53,116.6,53s37.1,23.9,45.1,31.1c0,3.3-1.3,7.3-6.6,11.3
			c-9.9,6.6-12.6,11.9-29.2,2.7c-16.6-9.3-56.3-33.1-68.2-38.4c-11.9-6-66.9-32.5-72.2-35.1c-4.6-2-9.9-2.7-13.3-4.6
			C584.4,571.8,595.7,559.9,610.3,560.6z"/>
	</g>
	<g>
		<path class="st50" d="M681.8,337.3c-4,0-16.6-2.7-21.2-3.3c-11.3-2-23.2-13.3-20.5-13.9c2-0.7,9.3,0,13.9,1.3
			c4.6,1.3,15.2,0.7,9.3-2.7s-19.9-4.6-30.5-3.3c-10.6,1.3-17.9-3.3-15.2-6s21.2-9.9,34.5-13.9c10.6-3.3,23.2,0,33.8,3.3
			C682.5,308.8,682.5,326,681.8,337.3z"/>
		<path class="st61" d="M649.4,297.5c5.3-1.3,12.6-1.3,19.9-0.7c-3.3,1.3-8,3.3-11.3,4.6c-5.3,1.3-19.9,3.3-32.5,4
			C632.8,302.8,642.1,299.5,649.4,297.5z"/>
	</g>
</g>
</svg>
